<?xml version="1.0" encoding="UTF-8"?><svg id="b" xmlns="http://www.w3.org/2000/svg" viewBox="0 0 36 36"><g id="c"><g><path d="M15.95,16.37h3.03s-.08-.05-.12-.08c-3.46-2-7.91-.81-9.91,2.65l1.26,.73c1.06-1.84,2.98-2.87,4.96-2.9v-.41h.78Z" fill="#fff"/><path d="M15.17,20.93v-.38c-.68,.02-1.33,.38-1.7,1.01l1.78,1.03,1.75-1.01c-.14-.25-.34-.47-.59-.65h-1.25Z" fill="#fff"/><path d="M19.24,12.39h2.34v-.78l-6.34-3.66-6.34,3.66v5.41c1.09-1.24,2.51-2.13,4.14-2.57,2.1-.56,4.29-.3,6.19,.73v-2.79Z" fill="#fff"/><path d="M11.21,20.25l1.26,.73c.58-1,1.62-1.56,2.7-1.59v-1.46c-1.58,.02-3.11,.85-3.96,2.32Z" fill="#fff"/><polygon points="23.02 17.15 23.02 13.18 21.58 13.18 20.02 13.18 20.02 15.66 20.02 17.13 20.02 17.15 20.02 17.15 17.28 17.15 15.95 17.15 15.95 17.99 15.95 19.47 15.95 20.14 17.29 20.14 19.18 20.14 20.02 20.14 20.02 20.14 20.02 28.05 23.02 28.05 23.02 20.14 27.09 20.14 27.09 17.15 23.02 17.15" fill="#fff"/></g><rect width="36" height="36" fill="none"/></g></svg>