<?xml version="1.0" encoding="UTF-8"?><svg id="b" xmlns="http://www.w3.org/2000/svg" viewBox="0 0 14.47 13.86"><g id="c"><g><path d="M3.02,3.61h1.3s-.04-.02-.05-.03C2.78,2.72,.87,3.23,0,4.71l.54,.31c.45-.79,1.28-1.23,2.13-1.24v-.18h.34Z" fill="#f79520"/><path d="M2.68,5.56v-.16c-.29,0-.57,.16-.73,.43l.76,.44,.75-.43c-.06-.11-.15-.2-.25-.28h-.53Z" fill="#f79520"/><path d="M4.43,1.9h1v-.34L2.72,0,0,1.57V3.89c.47-.53,1.08-.91,1.77-1.1,.9-.24,1.84-.13,2.65,.32V1.9h0Z" fill="#f79520"/><path d="M.98,5.27l.54,.31c.25-.43,.69-.67,1.16-.68v-.63c-.68,.01-1.33,.37-1.7,.99h0Z" fill="#f79520"/><polygon points="6.05 3.94 6.05 2.24 5.43 2.24 4.76 2.24 4.76 3.31 4.76 3.93 4.76 3.94 4.76 3.94 3.59 3.94 3.02 3.94 3.02 4.3 3.02 4.94 3.02 5.23 3.59 5.23 4.4 5.23 4.76 5.23 4.76 5.23 4.76 8.61 6.05 8.61 6.05 5.23 7.79 5.23 7.79 3.94 6.05 3.94" fill="#4d4d4e"/></g><line x1="7.04" y1="7.14" x2="14.47" y2="7.14" fill="none" stroke="#231f20" stroke-miterlimit="10" stroke-width=".5"/><line x1="7.04" y1="8.76" x2="11.96" y2="8.76" fill="none" stroke="#231f20" stroke-miterlimit="10" stroke-width=".5"/><line x1="7.04" y1="10.38" x2="14.47" y2="10.38" fill="none" stroke="#231f20" stroke-miterlimit="10" stroke-width=".5"/><line x1="7.04" y1="12" x2="13.04" y2="12" fill="none" stroke="#231f20" stroke-miterlimit="10" stroke-width=".5"/><line x1="7.04" y1="13.61" x2="11.96" y2="13.61" fill="none" stroke="#231f20" stroke-miterlimit="10" stroke-width=".5"/></g></svg>