<?xml version="1.0" encoding="UTF-8"?><svg id="b" xmlns="http://www.w3.org/2000/svg" viewBox="0 0 13.78 13.19"><g id="c"><g><path d="M3.02,3.61h1.3s-.04-.02-.05-.03C2.78,2.72,.87,3.23,.01,4.71l.54,.31c.45-.79,1.28-1.23,2.13-1.24v-.18h.34Z" fill="#f79520"/><path d="M2.68,5.56v-.16c-.29,0-.57,.16-.73,.43l.76,.44,.75-.43c-.06-.11-.15-.2-.25-.28h-.53Z" fill="#f79520"/><path d="M4.43,1.9h1v-.34L2.72,0,0,1.57V3.89c.47-.53,1.08-.91,1.77-1.1,.9-.24,1.84-.13,2.65,.32V1.9Z" fill="#f79520"/><path d="M.98,5.27l.54,.31c.25-.43,.69-.67,1.16-.68v-.63c-.68,.01-1.33,.37-1.7,.99Z" fill="#f79520"/><polygon points="6.05 3.94 6.05 2.24 5.43 2.24 4.76 2.24 4.76 3.31 4.76 3.93 4.76 3.94 4.76 3.94 3.59 3.94 3.02 3.94 3.02 4.3 3.02 4.94 3.02 5.23 3.59 5.23 4.4 5.23 4.76 5.23 4.76 5.23 4.76 8.61 6.05 8.61 6.05 5.23 7.79 5.23 7.79 3.94 6.05 3.94" fill="#4d4d4e"/></g><rect x="7.04" y="6.45" width="6.49" height="6.49" rx=".57" ry=".57" fill="none" stroke="#231f20" stroke-miterlimit="10" stroke-width=".5"/><path d="M9.95,10.98v-1.1h-.15c-.08,0-.15-.07-.15-.15v-.36c0-.08,.07-.15,.15-.15h.85c.08,0,.15,.07,.15,.15v1.62h.15c.08,0,.15,.07,.15,.15v.36c0,.08-.07,.15-.15,.15h-1.16c-.08,0-.15-.07-.15-.15v-.36c0-.08,.07-.15,.15-.15h.15Zm.97-2.68c0,.3-.25,.55-.55,.55s-.55-.25-.55-.55,.25-.55,.55-.55,.55,.25,.55,.55Z" fill="#231f20"/></g></svg>