<?xml version="1.0" encoding="UTF-8"?><svg id="b" xmlns="http://www.w3.org/2000/svg" viewBox="0 0 15.24 16.01"><g id="c"><g><path d="M4.72,5.78h.69s-.02-.01-.03-.02c-.79-.45-1.8-.18-2.25,.6l.29,.17c.24-.42,.68-.65,1.13-.66v-.09h.18Z" fill="#f79520"/><path d="M4.55,6.82v-.09c-.15,0-.3,.09-.39,.23l.4,.23,.4-.23c-.03-.06-.08-.11-.13-.15h-.28Z" fill="#f79520"/><path d="M5.47,4.88h.53v-.18l-1.44-.83-1.44,.83v1.23c.25-.28,.57-.48,.94-.58,.48-.13,.97-.07,1.41,.17v-.63Z" fill="#f79520"/><path d="M3.65,6.67l.29,.17c.13-.23,.37-.36,.61-.36v-.33c-.36,0-.71,.19-.9,.53Z" fill="#f79520"/><polygon points="6.33 5.96 6.33 5.06 6 5.06 5.65 5.06 5.65 5.62 5.65 5.96 5.65 5.96 5.65 5.96 5.03 5.96 4.72 5.96 4.72 6.15 4.72 6.49 4.72 6.64 5.03 6.64 5.46 6.64 5.65 6.64 5.65 6.64 5.65 8.44 6.33 8.44 6.33 6.64 7.26 6.64 7.26 5.96 6.33 5.96" fill="#4d4d4e"/></g><path d="M11.91,10.5v.52c0,.33-.27,.6-.6,.6H6.94c-.33,0-.6-.27-.6-.6v-.52c0-.92,.75-1.67,1.67-1.67h.21c.28,.13,.58,.2,.91,.2s.63-.07,.91-.2h.21c.92,0,1.67,.75,1.67,1.67Zm-4.37-3.66c0-.88,.71-1.59,1.59-1.59s1.59,.71,1.59,1.59-.71,1.59-1.59,1.59-1.59-.71-1.59-1.59Z" fill="#231f20"/><rect x=".31" y="3.27" width="12.43" height="12.43" rx="1.9" ry="1.9" fill="none" stroke="#231f20" stroke-miterlimit="10" stroke-width=".62"/><rect x="2.5" y=".31" width="12.43" height="12.43" rx="1.9" ry="1.9" fill="none" stroke="#231f20" stroke-miterlimit="10" stroke-width=".62"/></g></svg>